<svg id="alert" xmlns="http://www.w3.org/2000/svg" width="24" height="24" viewBox="0 0 24 24">
  <rect id="Bounding_box" data-name="Bounding box" width="24" height="24" fill="#b6b6b6" opacity="0"/>
  <path id="Icon_color" data-name="Icon color" d="M8,20a2,2,0,0,1-2-2h4A2,2,0,0,1,8,20Zm7-4H1a1,1,0,0,1-1-1v-.59a1.008,1.008,0,0,1,.29-.7l.83-.83A3.018,3.018,0,0,0,2,10.76V8A6.035,6.035,0,0,1,3.2,4.4l.9-1.2A3.011,3.011,0,0,1,6.5,2H7V.5A.5.5,0,0,1,7.5,0h1A.5.5,0,0,1,9,.5V2h.5a3.011,3.011,0,0,1,2.4,1.2l.9,1.2A6.035,6.035,0,0,1,14,8v2.76a3.016,3.016,0,0,0,.879,2.12l.831.83a1.008,1.008,0,0,1,.29.7V15A1,1,0,0,1,15,16Z" transform="translate(4 2)" fill="#b6b6b6"/>
</svg>
