<svg id="applestore" xmlns="http://www.w3.org/2000/svg" xmlns:xlink="http://www.w3.org/1999/xlink" width="160" height="48" viewBox="0 0 160 48">
  <defs>
    <clipPath id="clip-path">
      <path id="Path_2629" data-name="Path 2629" d="M0,0H160V48H0ZM0,0"/>
    </clipPath>
  </defs>
  <path id="Path_2627" data-name="Path 2627" d="M154.2,46.912H6.237A5.439,5.439,0,0,1,.809,41.46V6.257A5.439,5.439,0,0,1,6.237.8H154.2a5.44,5.44,0,0,1,5.428,5.452v35.2a5.44,5.44,0,0,1-5.428,5.452" transform="translate(-0.214 -0.21)"/>
  <g id="Group_6433" data-name="Group 6433" clip-path="url(#clip-path)">
    <path id="Path_2628" data-name="Path 2628" d="M6.02,1.19A4.85,4.85,0,0,0,1.186,6.045v35.2A4.85,4.85,0,0,0,6.02,46.1H153.983a4.85,4.85,0,0,0,4.834-4.855V6.045a4.85,4.85,0,0,0-4.834-4.855ZM153.983,47.3H6.02A6.041,6.041,0,0,1,0,41.249V6.045A6.041,6.041,0,0,1,6.02,0H153.983A6.041,6.041,0,0,1,160,6.045v35.2a6.041,6.041,0,0,1-6.02,6.049" transform="translate(0 0.001)" fill="#a7a9ab"/>
  </g>
  <path id="Path_2630" data-name="Path 2630" d="M73.9,15.169l-.609-1.915c-.149-.473-.276-1-.391-1.451h-.023c-.112.45-.23.989-.365,1.451l-.6,1.915Zm-2.214,1.07-.666,2.2H69.559l2.482-7.771h1.8l2.513,7.771H74.84l-.7-2.2" transform="translate(-18.415 -2.791)" fill="#fff"/>
  <path id="Path_2631" data-name="Path 2631" d="M81.122,13.594l.908,2.844c.161.5.273.946.376,1.408h.034c.1-.462.23-.9.379-1.408l.9-2.844h1.479L83.06,19.207H81.673l-2.079-5.613" transform="translate(-21.071 -3.555)" fill="#fff"/>
  <path id="Path_2632" data-name="Path 2632" d="M91.8,16.416c-1-.012-1.953.2-1.953,1.05a.743.743,0,0,0,.8.808A1.157,1.157,0,0,0,91.76,17.5a.892.892,0,0,0,.037-.312Zm1.376,1.4a7.56,7.56,0,0,0,.092,1.347H91.99l-.1-.62h-.037a2.038,2.038,0,0,1-1.651.747,1.66,1.66,0,0,1-1.755-1.67c0-1.408,1.249-2.132,3.314-2.12V15.4c0-.369-.146-.981-1.134-.981a2.954,2.954,0,0,0-1.505.415l-.276-.923a4.018,4.018,0,0,1,2.022-.493A2.1,2.1,0,0,1,93.173,15.8" transform="translate(-23.415 -3.51)" fill="#fff"/>
  <path id="Path_2633" data-name="Path 2633" d="M97.561,12.764h1.41v5.613h-1.41Zm.7-.808a.8.8,0,1,1,.014,0" transform="translate(-25.807 -2.726)" fill="#fff"/>
  <path id="Path_2634" data-name="Path 2634" d="M102.27,18.292h1.412v-8.2H102.27Zm0,0" transform="translate(-27.075 -2.64)" fill="#fff"/>
  <path id="Path_2635" data-name="Path 2635" d="M109.789,16.416c-1-.012-1.953.2-1.953,1.05a.743.743,0,0,0,.8.808,1.16,1.16,0,0,0,1.114-.773.96.96,0,0,0,.035-.312Zm1.376,1.4a7.539,7.539,0,0,0,.092,1.347h-1.272l-.1-.62h-.035a2.048,2.048,0,0,1-1.654.747,1.661,1.661,0,0,1-1.754-1.67c0-1.408,1.252-2.132,3.317-2.12V15.4c0-.369-.149-.981-1.137-.981a2.935,2.935,0,0,0-1.5.415l-.276-.923a4.007,4.007,0,0,1,2.019-.493,2.1,2.1,0,0,1,2.307,2.374" transform="translate(-28.178 -3.51)" fill="#fff"/>
  <path id="Path_2636" data-name="Path 2636" d="M116.979,15.973a1.585,1.585,0,0,0,.035.335,1.291,1.291,0,0,0,1.249.992c.885,0,1.425-.7,1.425-1.843,0-.992-.471-1.8-1.413-1.8a1.312,1.312,0,0,0-1.25,1.038,1.716,1.716,0,0,0-.046.369Zm-1.413-5.879h1.413v3.355H117a2.015,2.015,0,0,1,1.79-.9c1.367,0,2.34,1.139,2.329,2.847,0,2.016-1.273,3.02-2.536,3.02a1.919,1.919,0,0,1-1.767-.969h-.023l-.069.842H115.52c.023-.381.046-1,.046-1.569" transform="translate(-30.582 -2.64)" fill="#fff"/>
  <path id="Path_2637" data-name="Path 2637" d="M125.4,18.292h1.41v-8.2H125.4Zm0,0" transform="translate(-33.197 -2.64)" fill="#fff"/>
  <path id="Path_2638" data-name="Path 2638" d="M133.421,15.761a1.206,1.206,0,0,0-1.157-1.373,1.386,1.386,0,0,0-1.3,1.373Zm-2.456.989a1.522,1.522,0,0,0,1.723,1.454,4.479,4.479,0,0,0,1.548-.254l.207.966a4.953,4.953,0,0,1-1.951.358,2.65,2.65,0,0,1-2.884-2.833,2.776,2.776,0,0,1,2.734-3.02,2.436,2.436,0,0,1,2.409,2.732,3.468,3.468,0,0,1-.046.6" transform="translate(-34.312 -3.51)" fill="#fff"/>
  <path id="Path_2639" data-name="Path 2639" d="M145.116,18.262c.8,0,1.364-.785,1.364-1.924,0-.877-.39-1.892-1.353-1.892-1,0-1.4.981-1.4,1.915,0,1.082.54,1.9,1.376,1.9Zm-.046,1.027a2.708,2.708,0,0,1-2.8-2.893,2.764,2.764,0,0,1,2.892-2.974,2.687,2.687,0,0,1,2.777,2.882,2.773,2.773,0,0,1-2.857,2.986" transform="translate(-37.664 -3.51)" fill="#fff"/>
  <path id="Path_2640" data-name="Path 2640" d="M152.223,15.219c0-.646-.02-1.188-.043-1.673h1.226l.068.842h.035a2.051,2.051,0,0,1,1.793-.966c.973,0,1.984.632,1.984,2.409v3.329h-1.413V15.992c0-.808-.3-1.419-1.065-1.419a1.186,1.186,0,0,0-1.1.831,1.313,1.313,0,0,0-.069.45v3.306h-1.413" transform="translate(-40.288 -3.51)" fill="#fff"/>
  <path id="Path_2641" data-name="Path 2641" d="M167.187,11.641V13.08h1.341v1.062h-1.341v2.466c0,.692.184,1.038.721,1.038a1.833,1.833,0,0,0,.551-.058l.023,1.07a3.008,3.008,0,0,1-1.022.15,1.623,1.623,0,0,1-1.215-.459,2.224,2.224,0,0,1-.448-1.581V14.142H165V13.08h.793V12.033" transform="translate(-43.683 -3.044)" fill="#fff"/>
  <path id="Path_2642" data-name="Path 2642" d="M171.934,10.094h1.412v3.343h.024a1.858,1.858,0,0,1,.7-.635,2,2,0,0,1,.974-.251c.954,0,1.95.632,1.95,2.432v3.309h-1.41V15.133c0-.808-.3-1.431-1.079-1.431a1.178,1.178,0,0,0-1.1.8,1.271,1.271,0,0,0-.058.427v3.366h-1.412" transform="translate(-45.517 -2.64)" fill="#fff"/>
  <path id="Path_2643" data-name="Path 2643" d="M184.874,15.761a1.207,1.207,0,0,0-1.16-1.373,1.383,1.383,0,0,0-1.3,1.373Zm-2.456.989a1.52,1.52,0,0,0,1.721,1.454,4.462,4.462,0,0,0,1.548-.254l.21.966a4.958,4.958,0,0,1-1.954.358,2.648,2.648,0,0,1-2.88-2.833,2.775,2.775,0,0,1,2.731-3.02,2.437,2.437,0,0,1,2.41,2.732,3.454,3.454,0,0,1-.046.6" transform="translate(-47.934 -3.51)" fill="#fff"/>
  <path id="Path_2644" data-name="Path 2644" d="M41.151,28.265a6.909,6.909,0,0,1,3.28-5.8,7.041,7.041,0,0,0-5.557-3.017c-2.335-.245-4.6,1.408-5.79,1.408-1.215,0-3.05-1.382-5.023-1.341a7.4,7.4,0,0,0-6.227,3.813c-2.688,4.682-.684,11.559,1.9,15.343,1.292,1.852,2.8,3.923,4.771,3.848,1.93-.081,2.651-1.235,4.98-1.235,2.309,0,2.987,1.235,5,1.188,2.071-.035,3.375-1.861,4.618-3.733a15.241,15.241,0,0,0,2.114-4.321,6.684,6.684,0,0,1-4.061-6.15" transform="translate(-5.442 -5.079)" fill="#fff"/>
  <path id="Path_2645" data-name="Path 2645" d="M41.76,14.357a6.821,6.821,0,0,0,1.551-4.881A6.908,6.908,0,0,0,38.848,11.8a6.492,6.492,0,0,0-1.591,4.7,5.687,5.687,0,0,0,4.5-2.138" transform="translate(-9.854 -2.478)" fill="#fff"/>
  <path id="Path_2646" data-name="Path 2646" d="M77.114,38.072l-1.333-4.134q-.211-.632-.8-2.98H74.94c-.155.672-.408,1.667-.75,2.98l-1.31,4.134Zm4.607,6.6H79.029l-1.473-4.65H72.438l-1.4,4.65H68.414l5.078-15.831h3.131" transform="translate(-18.112 -7.544)" fill="#fff"/>
  <path id="Path_2647" data-name="Path 2647" d="M97.747,40.4A4.714,4.714,0,0,0,97,37.651a2.584,2.584,0,0,0-2.2-1.128,2.614,2.614,0,0,0-1.695.623,2.921,2.921,0,0,0-1,1.636,3.306,3.306,0,0,0-.115.77v1.9a3.059,3.059,0,0,0,.758,2.1,2.512,2.512,0,0,0,1.976.857,2.566,2.566,0,0,0,2.22-1.1,4.842,4.842,0,0,0,.8-2.911m2.573-.1a6.5,6.5,0,0,1-1.568,4.6,4.573,4.573,0,0,1-3.484,1.5A3.482,3.482,0,0,1,92.04,44.79h-.046V50.8H89.467V38.5q0-1.83-.092-3.759H91.6l.141,1.812h.049a4.478,4.478,0,0,1,7.189-.447,6.318,6.318,0,0,1,1.347,4.2" transform="translate(-23.661 -9.024)" fill="#fff"/>
  <path id="Path_2648" data-name="Path 2648" d="M115.526,40.4a4.718,4.718,0,0,0-.749-2.749,2.586,2.586,0,0,0-2.2-1.128,2.619,2.619,0,0,0-1.694.623,2.881,2.881,0,0,0-.991,1.636,3.2,3.2,0,0,0-.118.77v1.9a3.059,3.059,0,0,0,.755,2.1,2.515,2.515,0,0,0,1.979.857,2.573,2.573,0,0,0,2.22-1.1,4.878,4.878,0,0,0,.8-2.911m2.57-.1a6.5,6.5,0,0,1-1.565,4.6,4.566,4.566,0,0,1-3.484,1.5,3.489,3.489,0,0,1-3.229-1.621h-.043V50.8h-2.528V38.5q0-1.83-.092-3.759h2.22l.14,1.812h.049a4.477,4.477,0,0,1,7.189-.447,6.312,6.312,0,0,1,1.341,4.2" transform="translate(-28.368 -9.024)" fill="#fff"/>
  <path id="Path_2649" data-name="Path 2649" d="M138.4,40.151a4.232,4.232,0,0,1-1.4,3.289,6.192,6.192,0,0,1-4.291,1.385,7.512,7.512,0,0,1-4.09-.987l.586-2.112a6.92,6.92,0,0,0,3.654,1.007,3.442,3.442,0,0,0,2.223-.643,2.123,2.123,0,0,0,.793-1.731,2.214,2.214,0,0,0-.651-1.624,6.135,6.135,0,0,0-2.177-1.223q-4.14-1.553-4.139-4.54a4.024,4.024,0,0,1,1.451-3.2,5.71,5.71,0,0,1,3.857-1.249,7.645,7.645,0,0,1,3.579.753l-.632,2.068a6.189,6.189,0,0,0-3.015-.73,3.035,3.035,0,0,0-2.079.658,1.892,1.892,0,0,0-.632,1.434,1.93,1.93,0,0,0,.724,1.549,8.215,8.215,0,0,0,2.292,1.223,7.765,7.765,0,0,1,2.993,1.924,4.052,4.052,0,0,1,.96,2.749" transform="translate(-34.049 -7.46)" fill="#fff"/>
  <path id="Path_2650" data-name="Path 2650" d="M150.778,35.718h-2.784v5.541q0,2.116,1.476,2.114a4.524,4.524,0,0,0,1.121-.115l.068,1.924a5.582,5.582,0,0,1-1.962.283,3.032,3.032,0,0,1-2.34-.914,4.517,4.517,0,0,1-.842-3.078V35.718h-1.66v-1.9h1.66V31.726l2.479-.753v2.841h2.784" transform="translate(-38.084 -8.101)" fill="#fff"/>
  <path id="Path_2651" data-name="Path 2651" d="M163.725,40.435a5.159,5.159,0,0,0-.681-2.709,2.487,2.487,0,0,0-2.266-1.367,2.528,2.528,0,0,0-2.315,1.367,5.26,5.26,0,0,0-.675,2.758,5.14,5.14,0,0,0,.675,2.706,2.547,2.547,0,0,0,2.295,1.367,2.52,2.52,0,0,0,2.266-1.39,5.143,5.143,0,0,0,.7-2.732m2.62-.081a6.268,6.268,0,0,1-1.5,4.321,5.327,5.327,0,0,1-4.162,1.737,5.079,5.079,0,0,1-3.99-1.667,6.093,6.093,0,0,1-1.482-4.2,6.207,6.207,0,0,1,1.531-4.344A5.277,5.277,0,0,1,160.87,34.5a5.184,5.184,0,0,1,4.024,1.667,6.04,6.04,0,0,1,1.451,4.183" transform="translate(-41.091 -9.024)" fill="#fff"/>
  <path id="Path_2652" data-name="Path 2652" d="M179.327,36.97a4.375,4.375,0,0,0-.8-.069,2.389,2.389,0,0,0-2.059,1.01,3.826,3.826,0,0,0-.629,2.253v5.991h-2.524l.02-7.82q0-1.977-.092-3.6h2.2l.092,2.187h.066a3.922,3.922,0,0,1,1.264-1.809,3.06,3.06,0,0,1,1.826-.612,4.161,4.161,0,0,1,.632.046" transform="translate(-45.865 -9.024)" fill="#fff"/>
  <path id="Path_2653" data-name="Path 2653" d="M190.829,39.241a3.467,3.467,0,0,0-.488-1.95,2.211,2.211,0,0,0-2.014-1.059,2.4,2.4,0,0,0-2.01,1.036,3.759,3.759,0,0,0-.744,1.973Zm2.407.658a6.221,6.221,0,0,1-.089,1.151h-7.574a3.3,3.3,0,0,0,1.1,2.585,3.734,3.734,0,0,0,2.479.8,8.348,8.348,0,0,0,3.064-.539l.4,1.762a9.523,9.523,0,0,1-3.815.707,5.491,5.491,0,0,1-4.15-1.566,5.783,5.783,0,0,1-1.508-4.191,6.544,6.544,0,0,1,1.4-4.3,4.823,4.823,0,0,1,3.972-1.832,4.229,4.229,0,0,1,3.723,1.832,6.179,6.179,0,0,1,1,3.594" transform="translate(-48.483 -9.016)" fill="#fff"/>
</svg>
