<svg xmlns="http://www.w3.org/2000/svg" width="62" height="62" viewBox="0 0 62 62">
  <g id="cat1" transform="translate(-1163 -559)">
    <circle id="Ellipse_28" data-name="Ellipse 28" cx="31" cy="31" r="31" transform="translate(1163 559)" fill="#ff8121" opacity="0.1"/>
    <g id="microscope" transform="translate(1178 567)">
      <path id="Path_2529" data-name="Path 2529" d="M105.574,41.86h-4.112a.674.674,0,1,0,0,1.347H104.9V44.65H92.3V43.208h6.227a.674.674,0,1,0,0-1.347H92.3V40.418h7.066a1.3,1.3,0,0,0,1.3-1.3v-4.28h3.512a.674.674,0,0,0,.674-.674v-2.79a.674.674,0,0,0-.674-.674H93.017a.674.674,0,0,0-.674.674v2.79a.674.674,0,0,0,.674.674H96.53v1.441h-4.7A4.854,4.854,0,0,0,83.921,35a8.432,8.432,0,0,1-5.166-7.757A8.532,8.532,0,0,1,84,19.452a5.046,5.046,0,0,0,5.239,1.083l2,3.455-.624.36a.674.674,0,0,0-.247.92l1.4,2.417a.681.681,0,0,0,.92.247l3.041-1.756,1.058,1.832a.679.679,0,0,0,.92.247l2.417-1.4a.674.674,0,0,0,.247-.92L99.3,24.11l3.041-1.756a.674.674,0,0,0,.247-.92l-1.4-2.417a.674.674,0,0,0-.92-.247l-.625.361-3.522-6.1a.674.674,0,0,0-1.167.674l3.522,6.1L92.4,23.317,90.4,19.866a4.855,4.855,0,0,0-4.812-8.334l-.916-1.587,6.084-3.513,2.731,4.73a.674.674,0,1,0,1.167-.674L91.591,5.174a.674.674,0,0,0-.92-.247L88.837,5.986l-.721-1.249.625-.361a.674.674,0,0,0,.336-.624L88.889.638A.65.65,0,0,0,87.88.095L80.63,4.28c-.437.369-.585.784-.034,1.146l2.6,1.719a.674.674,0,0,0,.708.021l.625-.361.722,1.25L83.419,9.115a.674.674,0,0,0-.247.92l1.258,2.178a4.884,4.884,0,0,0-1.45,1.879A13.93,13.93,0,0,0,73.451,25.7a.674.674,0,1,0,1.339.15,12.427,12.427,0,0,1,1.922-5.385l2.035,1.852a9.747,9.747,0,0,0,4.374,13.8,5.22,5.22,0,0,0-.543,2.7A12.454,12.454,0,0,1,74.79,28.635a.674.674,0,0,0-1.339.15,13.8,13.8,0,0,0,9.126,11.473v1.6h-7.7a.674.674,0,0,0-.674.674v2.79A.674.674,0,0,0,74.88,46h30.694a.674.674,0,0,0,.674-.674v-2.79a.674.674,0,0,0-.674-.674ZM93.691,32.045H103.5v1.443H93.691Zm5.164-6.012-1.25.721-.721-1.249,1.25-.721Zm1.508-5.759.722,1.25-8.5,4.907-.722-1.25ZM83.594,5.791,82.248,4.9l5.361-3.1.1,1.61Zm2.826,1.59L85.7,6.132l1.25-.721.721,1.25Zm4.525,8.644a3.51,3.51,0,1,1-3.51-3.51A3.514,3.514,0,0,1,90.945,16.025Zm-7.778,2.317a9.739,9.739,0,0,0-1.624.927l-1.919-1.943a12.463,12.463,0,0,1,2.969-1.666A5.055,5.055,0,0,0,83.167,18.342ZM77.51,19.368A12.4,12.4,0,0,1,78.594,18.2l1.9,1.925a9.79,9.79,0,0,0-.98,1.068ZM97.2,37.624a.674.674,0,0,0,.674-.674V34.836h1.441V39.07H92.3a8.569,8.569,0,0,0-.054-1.446Zm-9.766-2.789a3.517,3.517,0,0,1,3.513,3.513v6.3H83.925v-6.3A3.517,3.517,0,0,1,87.438,34.835ZM75.554,43.208h7.024V44.65H75.554Z" transform="translate(-73.447 -0.001)" fill="#ff8121"/>
      <path id="Path_2530" data-name="Path 2530" d="M208.224,407.978a2.069,2.069,0,1,0-2.069-2.069A2.071,2.071,0,0,0,208.224,407.978Zm0-2.79a.721.721,0,1,1-.721.721A.722.722,0,0,1,208.224,405.187Z" transform="translate(-194.234 -367.563)" fill="#ff8121"/>
      <path id="Path_2531" data-name="Path 2531" d="M208.225,159.479a2.069,2.069,0,1,0-2.069-2.069A2.071,2.071,0,0,0,208.225,159.479Zm0-2.79a.721.721,0,1,1-.721.721A.722.722,0,0,1,208.225,156.688Z" transform="translate(-194.235 -141.387)" fill="#ff8121"/>
    </g>
  </g>
</svg>
