<svg xmlns="http://www.w3.org/2000/svg" width="62" height="62" viewBox="0 0 62 62">
  <g id="cat2" transform="translate(-1029 -557)">
    <circle id="Ellipse_29" data-name="Ellipse 29" cx="31" cy="31" r="31" transform="translate(1029 557)" fill="#2fcf00" opacity="0.1"/>
    <g id="flask_1_" data-name="flask (1)" transform="translate(1041 559.273)">
      <path id="Path_2524" data-name="Path 2524" d="M165.958,206.04a.986.986,0,0,0-.811.426c-.645.934-2.147,3.243-2.147,4.5a2.958,2.958,0,0,0,5.915,0c0-1.261-1.5-3.57-2.146-4.5A.986.986,0,0,0,165.958,206.04Zm0,5.915a.987.987,0,0,1-.986-.985,7.365,7.365,0,0,1,.986-2.118,7.36,7.36,0,0,1,.986,2.117A.987.987,0,0,1,165.958,211.955Z" transform="translate(-146.93 -186.482)" fill="#2fcf00"/>
      <ellipse id="Ellipse_27" data-name="Ellipse 27" cx="0.549" cy="1.098" rx="0.549" ry="1.098" transform="translate(18.46 47.515)" fill="#2fcf00"/>
      <path id="Path_2525" data-name="Path 2525" d="M26.225,100.586v-8.63h.986a.986.986,0,0,0,.986-.986V87.026a.986.986,0,0,0-.986-.986H10.845a.986.986,0,0,0-.986.986V90.97a.986.986,0,0,0,.986.986h.986v8.63L.468,122.232a3.944,3.944,0,0,0,3.475,5.808H14.592a.986.986,0,0,0,0-1.972H3.944A1.974,1.974,0,0,1,1.972,124.1a1.948,1.948,0,0,1,.235-.934l6.031-11.488H29.819l6.031,11.488a1.947,1.947,0,0,1,.235.934,1.974,1.974,0,0,1-1.972,1.972H23.465a.986.986,0,0,0,0,1.972H34.113a3.944,3.944,0,0,0,3.475-5.808ZM11.831,88.012H26.225v1.972H11.831ZM9.273,109.7l4.417-8.415a.986.986,0,0,0,.113-.458V91.955H24.254v8.873a.985.985,0,0,0,.113.458l4.417,8.415Z" transform="translate(0 -78.313)" fill="#2fcf00"/>
    </g>
  </g>
</svg>
