<svg xmlns="http://www.w3.org/2000/svg" width="62" height="62" viewBox="0 0 62 62">
  <g id="cat3" transform="translate(-912 -559)">
    <circle id="Ellipse_30" data-name="Ellipse 30" cx="31" cy="31" r="31" transform="translate(912 559)" fill="#1800bf" opacity="0.1"/>
    <g id="cpu" transform="translate(922 569)">
      <g id="Group_6278" data-name="Group 6278" transform="translate(0 4.615)">
        <g id="Group_6277" data-name="Group 6277">
          <path id="Path_2519" data-name="Path 2519" d="M7.508,56.263H7.5a2.808,2.808,0,0,0-2.755,2.8v4H.618a.618.618,0,1,0,0,1.236H4.743v3.25H.618a.618.618,0,0,0,0,1.236H4.743v3.25H.618a.618.618,0,0,0,0,1.236H4.743v3.25H.618a.618.618,0,0,0,0,1.236H4.743V81H.618a.618.618,0,0,0,0,1.236H4.743v2.114a.618.618,0,1,0,1.236,0V59.06A1.568,1.568,0,0,1,7.517,57.5a.618.618,0,0,0-.009-1.236Z" transform="translate(0 -56.263)" fill="#1800bf"/>
        </g>
      </g>
      <g id="Group_6280" data-name="Group 6280" transform="translate(4.905 34.538)">
        <g id="Group_6279" data-name="Group 6279">
          <path id="Path_2520" data-name="Path 2520" d="M88.531,422.392H62.424a1.557,1.557,0,0,1-1.446-.97.618.618,0,0,0-1.144.468,2.788,2.788,0,0,0,2.59,1.738h3.868v4.253a.618.618,0,0,0,1.236,0v-4.253h3.25v4.253a.618.618,0,0,0,1.236,0v-4.253h3.25v4.253a.618.618,0,0,0,1.236,0v-4.253h3.25v4.253a.618.618,0,0,0,1.236,0v-4.253h3.25v4.253a.618.618,0,0,0,1.236,0v-4.253h3.055a.618.618,0,1,0,0-1.236Z" transform="translate(-59.788 -421.037)" fill="#1800bf"/>
        </g>
      </g>
      <g id="Group_6282" data-name="Group 6282" transform="translate(10.64 10.511)">
        <g id="Group_6281" data-name="Group 6281">
          <path id="Path_2521" data-name="Path 2521" d="M148.45,128.138H131.682a1.978,1.978,0,0,0-1.976,1.976v16.77a1.978,1.978,0,0,0,1.976,1.976h16.769a1.978,1.978,0,0,0,1.976-1.976v-16.77A1.978,1.978,0,0,0,148.45,128.138Zm-17.508,1.976a.74.74,0,0,1,.739-.739h12.787v6.456a2.937,2.937,0,0,0-2.242,2.242h-4.556V134.9a2.541,2.541,0,1,0-2.983-2.983h-3.746ZM145.087,137a1.689,1.689,0,1,1-1.69,1.69A1.691,1.691,0,0,1,145.087,137Zm-7.905-3.287a1.3,1.3,0,1,1,1.3-1.3A1.307,1.307,0,0,1,137.182,133.714Zm-2.67,10.1a1.176,1.176,0,1,1,1.752-1.025A1.176,1.176,0,0,1,134.512,143.818Zm5,3.8h-4.148v-2.433a2.413,2.413,0,1,0-1.236-.183v2.616h-2.446a.74.74,0,0,1-.739-.739V133.156h3.811a2.588,2.588,0,0,0,1.682,1.682v3.853a.618.618,0,0,0,.618.618h2.459Zm9.678-.739a.74.74,0,0,1-.739.739h-7.7v-2.673h8.441Zm0-3.17h-8.441v-4.4h1.479a2.926,2.926,0,1,0,3.478-3.478h0v-6.456h2.745a.74.74,0,0,1,.739.739v13.6Z" transform="translate(-129.706 -128.138)" fill="#1800bf"/>
        </g>
      </g>
      <g id="Group_6284" data-name="Group 6284" transform="translate(9.362)">
        <g id="Group_6283" data-name="Group 6283">
          <path id="Path_2522" data-name="Path 2522" d="M146.151,17.132a.618.618,0,1,0,0-1.236h-4.125v-3.25h4.125a.618.618,0,1,0,0-1.236h-4.125v-4a2.8,2.8,0,0,0-2.8-2.8H135.36v-4a.618.618,0,1,0-1.236,0v4h-3.25v-4a.618.618,0,0,0-1.236,0v4h-3.25v-4a.618.618,0,1,0-1.236,0v4H121.9v-4a.618.618,0,0,0-1.236,0v4h-3.25v-4a.618.618,0,0,0-1.236,0v4h-1.428a.618.618,0,0,0,0,1.236h24.479a1.563,1.563,0,0,1,1.561,1.561v26.92a1.546,1.546,0,0,1-.484,1.13.618.618,0,0,0,.853.9,2.775,2.775,0,0,0,.867-2.025v-3.74h4.125a.618.618,0,1,0,0-1.236h-4.125V26.1h4.125a.618.618,0,1,0,0-1.236h-4.125v-3.25h4.125a.618.618,0,1,0,0-1.236h-4.125v-3.25h4.125Z" transform="translate(-114.131)" fill="#1800bf"/>
        </g>
      </g>
    </g>
  </g>
</svg>
