<svg xmlns="http://www.w3.org/2000/svg" width="148" height="148" viewBox="0 0 148 148">
  <g id="emptyCart" transform="translate(-1112 -285)">
    <rect id="Rectangle_1718" data-name="Rectangle 1718" width="148" height="148" rx="74" transform="translate(1112 285)" fill="#fafbfe"/>
    <g id="empty-cart" transform="translate(1130.624 310)">
      <path id="Path_2542" data-name="Path 2542" d="M105.391,121.727a3.161,3.161,0,1,0,6.289-.652l-1.458-14.166a3.161,3.161,0,1,0-6.289.653Z" transform="translate(-53.533 -60.013)" fill="#fd1f4a"/>
      <path id="Path_2543" data-name="Path 2543" d="M150.458,124.558a3.158,3.158,0,0,0,3.469-2.832l1.458-14.166a3.162,3.162,0,1,0-6.289-.653l-1.458,14.166A3.171,3.171,0,0,0,150.458,124.558Z" transform="translate(-78.816 -60.013)" fill="#fd1f4a"/>
      <path id="Path_2544" data-name="Path 2544" d="M82.848,185.088a9.828,9.828,0,1,0,9.786,9.826A9.817,9.817,0,0,0,82.848,185.088Zm0,13.306a3.479,3.479,0,1,1,3.463-3.48A3.475,3.475,0,0,1,82.848,198.394Z" transform="translate(-35.685 -106.744)" fill="#fd1f4a"/>
      <path id="Path_2545" data-name="Path 2545" d="M160.289,185.088a9.828,9.828,0,1,0,9.787,9.826A9.817,9.817,0,0,0,160.289,185.088Zm0,13.306a3.479,3.479,0,1,1,3.464-3.48A3.476,3.476,0,0,1,160.289,198.394Z" transform="translate(-80.483 -106.744)" fill="#fd1f4a"/>
      <path id="Path_2546" data-name="Path 2546" d="M98.715,60.241a3.156,3.156,0,0,0-2.5-1.233H33.2L30.554,48.789a3.164,3.164,0,0,0-3.06-2.375H14.537a3.175,3.175,0,0,0,0,6.349H25.05L27.675,62.9c.013.057.028.113.044.168l9.761,37.692a3.164,3.164,0,0,0,3.06,2.375H86.431a3.164,3.164,0,0,0,3.06-2.375l9.783-37.778A3.186,3.186,0,0,0,98.715,60.241ZM83.987,96.786h-41L34.845,65.358H92.126Z" transform="translate(0 -26.768)" fill="#fd1f4a"/>
      <path id="Path_2547" data-name="Path 2547" d="M90.639,31.869a3.152,3.152,0,0,0,4.471,0,3.184,3.184,0,0,0,0-4.49L85.167,17.4a3.153,3.153,0,0,0-4.471,0,3.185,3.185,0,0,0,0,4.49Z" transform="translate(-39.565 -9.498)" fill="#fd1f4a"/>
      <path id="Path_2548" data-name="Path 2548" d="M154.836,32.8a3.146,3.146,0,0,0,2.237-.931L167,21.891a3.184,3.184,0,0,0,0-4.489,3.152,3.152,0,0,0-4.471,0L152.6,27.382a3.184,3.184,0,0,0,0,4.49A3.145,3.145,0,0,0,154.836,32.8Z" transform="translate(-81.161 -9.5)" fill="#fd1f4a"/>
      <path id="Path_2549" data-name="Path 2549" d="M130.668,20.449h0a3.168,3.168,0,0,0,3.161-3.174l0-14.1A3.168,3.168,0,0,0,130.674,0h0a3.168,3.168,0,0,0-3.162,3.174l0,14.1A3.168,3.168,0,0,0,130.668,20.449Z" transform="translate(-67.181)" fill="#fd1f4a"/>
    </g>
  </g>
</svg>
