<svg id="flask-icon" xmlns="http://www.w3.org/2000/svg" width="70" height="24" viewBox="0 0 70 24">
  <rect id="Bounding_box" data-name="Bounding box" width="70" height="24" fill="#b6b6b6" opacity="0"/>
  <path id="Icon_color" data-name="Icon color" d="M7,20A7,7,0,0,1,3.11,7.187,1.994,1.994,0,0,0,4,5.517V2H3.5A.5.5,0,0,1,3,1.5V.5A.5.5,0,0,1,3.5,0h7a.5.5,0,0,1,.5.5v1a.5.5,0,0,1-.5.5H10V5.517a1.992,1.992,0,0,0,.89,1.67A7,7,0,0,1,7,20ZM6,2V5.517A3.99,3.99,0,0,1,4.22,8.846,4.988,4.988,0,0,0,2,12.994H12A4.987,4.987,0,0,0,9.78,8.846,4,4,0,0,1,8,5.517V2Z" transform="translate(27.999 2)" fill="#b6b6b6"/>
</svg>
