<svg xmlns="http://www.w3.org/2000/svg" xmlns:xlink="http://www.w3.org/1999/xlink" width="154" height="58" viewBox="0 0 154 58">
  <defs>
    <clipPath id="clip-path">
      <rect id="Rectangle_1692" data-name="Rectangle 1692" width="57.75" height="58" transform="translate(0)"/>
    </clipPath>
  </defs>
  <g id="footerLogo" transform="translate(348.5 -13.1)">
    <g id="Group_6275" data-name="Group 6275" transform="translate(-348.5 26.626)">
      <g id="Group_6271" data-name="Group 6271" transform="translate(0)">
        <path id="Path_2498" data-name="Path 2498" d="M17.277,290.8v10.208H8.612c-4.1,0-6.112-1.369-6.112-4.338A20.442,20.442,0,0,1,3.039,293l2.693.51a17.917,17.917,0,0,0-.468,3.155c0,1.415.585,1.879,3.349,1.879h5.925V290.8ZM8.5,302.238h2.763v2.784H8.5Z" transform="translate(-2.5 -286.531)" fill="#111"/>
        <path id="Path_2499" data-name="Path 2499" d="M69.1,305.973l.3-2.436c.422.046.679.07.843.07.609,0,1.007-.534,1.007-1.74V290.8h2.763v11.066c0,2.506-1.546,4.176-3.77,4.176C69.92,306.042,69.451,306,69.1,305.973Z" transform="translate(-53.503 -286.531)" fill="#111"/>
        <path id="Path_2500" data-name="Path 2500" d="M109.453,286.262c0,.766-.094,1.23-.422,1.23H103.2V273.2h2.763v11.832h3.068C109.382,285.032,109.453,285.5,109.453,286.262Z" transform="translate(-79.618 -273.014)" fill="#111"/>
        <path id="Path_2501" data-name="Path 2501" d="M132.3,325.43c0,.766-.094,1.23-.422,1.23h-5.152c-.328,0-.422-.464-.422-1.23s.094-1.23.422-1.23h5.152C132.225,324.2,132.3,324.664,132.3,325.43Z" transform="translate(-97.308 -312.182)" fill="#111"/>
        <path id="Path_2502" data-name="Path 2502" d="M154.3,325.43c0,.766-.094,1.23-.422,1.23h-5.152c-.328,0-.422-.464-.422-1.23s.094-1.23.422-1.23h5.152C154.225,324.2,154.3,324.664,154.3,325.43Z" transform="translate(-114.156 -312.182)" fill="#111"/>
        <path id="Path_2503" data-name="Path 2503" d="M176.3,325.43c0,.766-.094,1.23-.422,1.23h-5.152c-.328,0-.422-.464-.422-1.23s.094-1.23.422-1.23h5.152C176.225,324.2,176.3,324.664,176.3,325.43Z" transform="translate(-131.004 -312.182)" fill="#111"/>
        <path id="Path_2504" data-name="Path 2504" d="M198.3,325.43c0,.766-.094,1.23-.422,1.23h-5.152c-.328,0-.422-.464-.422-1.23s.094-1.23.422-1.23h5.152C198.225,324.2,198.3,324.664,198.3,325.43Z" transform="translate(-147.852 -312.182)" fill="#111"/>
        <path id="Path_2505" data-name="Path 2505" d="M220.3,325.43c0,.766-.094,1.23-.422,1.23h-5.152c-.328,0-.422-.464-.422-1.23s.094-1.23.422-1.23h5.152C220.225,324.2,220.3,324.664,220.3,325.43Z" transform="translate(-164.7 -312.182)" fill="#111"/>
        <path id="Path_2506" data-name="Path 2506" d="M242.3,325.43c0,.766-.094,1.23-.422,1.23h-5.152c-.328,0-.422-.464-.422-1.23s.094-1.23.422-1.23h5.152C242.225,324.2,242.3,324.664,242.3,325.43Z" transform="translate(-181.548 -312.182)" fill="#111"/>
        <path id="Path_2507" data-name="Path 2507" d="M264.3,325.43c0,.766-.094,1.23-.422,1.23h-5.152c-.328,0-.422-.464-.422-1.23s.094-1.23.422-1.23h5.152C264.225,324.2,264.3,324.664,264.3,325.43Z" transform="translate(-198.396 -312.182)" fill="#111"/>
        <path id="Path_2508" data-name="Path 2508" d="M294.217,299.7c0,.766-.094,1.23-.422,1.23H280.822c-.328,0-.422-.464-.422-1.23s.094-1.23.422-1.23H288.6V295.34c0-1.438-.866-2.181-2.693-2.181-.749,0-1.639.116-3.3.3l-.281-2.227a15.238,15.238,0,0,1,3.583-.534c3.208,0,5.457,1.74,5.457,4.64v3.132h2.459C294.147,298.472,294.217,298.936,294.217,299.7Zm-9.719,2.482h2.763v2.784H284.5Z" transform="translate(-215.32 -286.454)" fill="#111"/>
        <path id="Path_2509" data-name="Path 2509" d="M338.68,276.669h2.763v10.208h-5.222c-.328,0-.422-.464-.422-1.23s.094-1.23.422-1.23h2.459Zm.7-1.485H336.62V272.4h2.763Zm4.1-2.784v2.784h-2.763V272.4Z" transform="translate(-257.746 -272.4)" fill="#111"/>
      </g>
      <g id="Group_6272" data-name="Group 6272" transform="translate(9.976 25.474)">
        <path id="Path_2510" data-name="Path 2510" d="M48.847,386.482H45.1V384H55.4v2.482H51.7v11.391H48.87l-.023-11.391Z" transform="translate(-45.1 -383.582)" fill="#fbbd0d"/>
        <path id="Path_2511" data-name="Path 2511" d="M86.4,405.978c0-2.3,1.335-2.97,3.606-3.132l2.2-.162v-.626c0-.882-.4-1.114-1.218-1.114-.984,0-2.81.093-3.864.162l-.094-1.9a18.273,18.273,0,0,1,4.192-.6c2.67,0,3.747,1.044,3.747,3.434v4.246c.047.6.117.858.679.951l-.094,2.065a6.609,6.609,0,0,1-1.8-.186,2.873,2.873,0,0,1-1.148-.534,7.893,7.893,0,0,1-3.021.719C87.43,409.318,86.4,408.135,86.4,405.978Zm5.808.789v-2.181l-1.873.162c-.726.07-1.147.418-1.147,1.137s.258,1.206,1.007,1.206A8.694,8.694,0,0,0,92.208,406.766Z" transform="translate(-76.728 -394.795)" fill="#fbbd0d"/>
        <path id="Path_2512" data-name="Path 2512" d="M125.8,399.159c1.686-1.114,1.991-1.438,1.991-3.155v-9.721h2.763v9.744c0,2.83-.8,3.735-3.677,5.174Zm2.014-16.959h2.763v2.784h-2.763Z" transform="translate(-106.901 -382.2)" fill="#fbbd0d"/>
        <path id="Path_2513" data-name="Path 2513" d="M154.2,405.978c0-2.3,1.335-2.97,3.606-3.132l2.2-.162v-.626c0-.882-.4-1.114-1.218-1.114-.984,0-2.81.093-3.864.162l-.094-1.9a18.273,18.273,0,0,1,4.192-.6c2.67,0,3.747,1.044,3.747,3.434v4.246c.047.6.117.858.679.951l-.094,2.065a6.609,6.609,0,0,1-1.8-.186,2.873,2.873,0,0,1-1.148-.534,7.893,7.893,0,0,1-3.021.719C155.23,409.318,154.2,408.135,154.2,405.978Zm5.831.789v-2.181l-1.873.162c-.726.07-1.148.418-1.148,1.137s.258,1.206,1.007,1.206A9.128,9.128,0,0,0,160.031,406.766Z" transform="translate(-128.65 -394.795)" fill="#fbbd0d"/>
        <path id="Path_2514" data-name="Path 2514" d="M202.1,399.032h2.74v1.09a11.634,11.634,0,0,1,3.3-1.322v2.761a25.076,25.076,0,0,0-3.279.858v6.844H202.1Z" transform="translate(-165.333 -394.949)" fill="#fbbd0d"/>
        <path id="Path_2515" data-name="Path 2515" d="M232.6,404.036c0-3.155,1.147-5.336,4.731-5.336s4.731,2.181,4.731,5.336-1.148,5.359-4.731,5.359S232.6,407.168,232.6,404.036Zm6.674,0c0-1.972-.422-2.993-1.944-2.993s-1.944,1.021-1.944,2.993.422,3.039,1.944,3.039S239.274,406.008,239.274,404.036Z" transform="translate(-188.69 -394.872)" fill="#fbbd0d"/>
        <path id="Path_2516" data-name="Path 2516" d="M281.6,396.445V382.2h2.763v4.385a6.674,6.674,0,0,1,2.225-.557c2.81,0,4.168,1.276,4.168,5.2,0,4.385-1.5,5.5-5.129,5.5C284.925,396.723,282.888,396.561,281.6,396.445Zm6.37-5.2c0-2.065-.656-2.761-1.733-2.761a8.461,8.461,0,0,0-1.85.255v5.452c.422.046,1.03.093,1.265.093C287.525,394.287,287.97,393.452,287.97,391.248Z" transform="translate(-226.215 -382.2)" fill="#fbbd0d"/>
      </g>
      <g id="Group_6273" data-name="Group 6273" transform="translate(75.899 24.778)">
        <path id="Path_2517" data-name="Path 2517" d="M327.443,379.757H326.6V379.2h2.342v.557H328.1v2.6h-.656v-2.6Z" transform="translate(-326.6 -379.2)" fill="#111"/>
        <path id="Path_2518" data-name="Path 2518" d="M338.147,379.2h1.1l.562,2.3.562-2.3h1.1v3.155h-.656v-2.436h-.07l-.632,2.3h-.656l-.632-2.3h-.07v2.436H338.1V379.2Z" transform="translate(-335.407 -379.2)" fill="#111"/>
      </g>
    </g>
    <g id="Group_6274" data-name="Group 6274" transform="translate(-252.25 13.1)">
      <g id="Group_6276" transform="translate(0)" clip-path="url(#clip-path)">
        <g id="Group_6274-2" data-name="Group_6274" transform="translate(28.867 67.025) rotate(-135)">
          <g id="Group_6273-2" data-name="Group_6273" transform="translate(0 0)">
            <path id="Subtraction_1" d="M9.654,47.006h0L7.473,44.825a25.613,25.613,0,0,1-3.337-4.11,25.9,25.9,0,0,1-3.8-9.422A26.449,26.449,0,0,1,4.271,11.812a26.745,26.745,0,0,1,7.517-7.541A26.383,26.383,0,0,1,36.135,1.756,26.025,26.025,0,0,1,44.8,7.473l2.181,2.181L39.676,16.96l-.371-.371a18.453,18.453,0,0,0-1.738-2.066A16.3,16.3,0,0,0,14.523,37.567a13.324,13.324,0,0,0,2.066,1.738l.371.371Z" transform="translate(0 0)" fill="#fbbd0d"/>
          </g>
          <path id="Path_2501-2" data-name="Path_2501" d="M1.316,3.28l2.2-2.2L2.961.522C2.775.336,2.59.151,2.4-.012L.2,2.19a.755.755,0,0,0,.042,1.1A.79.79,0,0,0,1.316,3.28Z" transform="translate(41.841 6.951)" fill="#111"/>
          <path id="Path_2502-2" data-name="Path_2502" d="M1.775-.009.108,2.61A.764.764,0,0,0,.359,3.681a.791.791,0,0,0,1.073-.238L3.1.824C2.635.523,2.216.246,1.775-.009Z" transform="translate(37.802 3.45)" fill="#111"/>
          <path id="Path_2503-2" data-name="Path_2503" d="M1.068-.005.029,2.913a.764.764,0,0,0,.462.977.778.778,0,0,0,.981-.471L2.511.5C2.046.317,1.557.156,1.068-.005Z" transform="translate(33.135 1.071)" fill="#111"/>
          <path id="Path_2504-2" data-name="Path_2504" d="M-.01,3.053a.774.774,0,0,0,1.538.179L1.892.154C1.379.087.867.019.354,0Z" transform="translate(28.074 -0.024)" fill="#111"/>
          <path id="Path_2505-2" data-name="Path_2505" d="M.334,3.261a.774.774,0,0,0,.859.672.791.791,0,0,0,.68-.866L1.538-.007C1.025.042.512.091,0,.163Z" transform="translate(22.554 -0.044)" fill="#111"/>
          <path id="Path_2506-2" data-name="Path_2506" d="M1.033,3.421a.764.764,0,0,0,.977.462A.778.778,0,0,0,2.48,2.9L1.468-.007C.978.158.488.324,0,.513Z" transform="translate(16.815 1.148)" fill="#111"/>
          <path id="Path_2507-2" data-name="Path_2507" d="M1.639,3.442A.758.758,0,0,0,2.71,3.67.765.765,0,0,0,2.948,2.6h0L1.305-.006C.861.252.417.534,0,.839Z" transform="translate(11.606 3.573)" fill="#111"/>
          <path id="Path_2508-2" data-name="Path_2508" d="M-.005,1.1,2.175,3.276A.779.779,0,0,0,3.3,2.2l-.023-.023L1.1-.005C.908.182.721.346.533.533S.159.908-.005,1.1Z" transform="translate(7.114 7.137)" fill="#111"/>
          <path id="Path_2509-2" data-name="Path_2509" d="M2.573,2.948a.792.792,0,0,0,1.073-.261.777.777,0,0,0-.228-1.048L.816,0C.534.417.252.861-.006,1.305Z" transform="translate(3.596 11.629)" fill="#111"/>
          <path id="Path_2510-2" data-name="Path_2510" d="M2.9,2.48a.791.791,0,0,0,.981-.494.764.764,0,0,0-.462-.977L.513,0C.324.488.158.978-.007,1.468Z" transform="translate(1.148 16.861)" fill="#111"/>
          <path id="Path_2511-2" data-name="Path_2511" d="M3.068,1.874a.773.773,0,0,0,.842-.7A.752.752,0,0,0,3.238.334L.163,0C.091.512.018,1.025-.007,1.538Z" transform="translate(-0.021 22.577)" fill="#111"/>
          <path id="Path_2512-2" data-name="Path_2512" d="M3.077-.014,0,.35C.043.863.087,1.376.154,1.888l3.079-.364a.791.791,0,0,0,.68-.866.8.8,0,0,0-.836-.672Z" transform="translate(-0.047 28.101)" fill="#111"/>
          <path id="Path_2513-2" data-name="Path_2513" d="M2.913.027-.005,1.066c.161.489.322.977.506,1.466L3.419,1.493A.791.791,0,0,0,3.913.511.776.776,0,0,0,2.937.027Z" transform="translate(1.071 33.161)" fill="#111"/>
          <path id="Path_2514-2" data-name="Path_2514" d="M2.61.131-.009,1.8A15.3,15.3,0,0,0,.824,3.1L3.443,1.432A.772.772,0,0,0,3.7.359.764.764,0,0,0,2.633.107.023.023,0,0,1,2.61.131Z" transform="translate(3.45 37.802)" fill="#111"/>
          <path id="Path_2515-2" data-name="Path_2515" d="M3.285.211a.774.774,0,0,0-1.1.005l-2.2,2.2a5.743,5.743,0,0,0,.534.534l.557.557,2.2-2.2A.773.773,0,0,0,3.285.211Z" transform="translate(6.951 41.874)" fill="#111"/>
        </g>
        <g id="Group_6275-2" data-name="Group_6275" transform="translate(10.443 1.786)">
          <ellipse id="Ellipse_28" cx="5.62" cy="5.568" rx="5.62" ry="5.568" transform="translate(25.526)" fill="#fd1f4a"/>
          <ellipse id="Ellipse_29" cx="5.62" cy="5.568" rx="5.62" ry="5.568" transform="translate(0)" fill="#fd1f4a"/>
        </g>
      </g>
    </g>
  </g>
</svg>
