<svg id="icon-4" xmlns="http://www.w3.org/2000/svg" width="24" height="24" viewBox="0 0 24 24">
  <rect id="Bounding_box" data-name="Bounding box" width="24" height="24" fill="#6d6d6d" opacity="0"/>
  <path id="Icon_color" data-name="Icon color" d="M18,12v4a2,2,0,0,1-2,2v1a3,3,0,0,1-3,3H10a1,1,0,0,1-1-1v-.5a.5.5,0,0,1,.5-.5H13a1,1,0,0,0,1-1V18a1,1,0,0,1-1-1V11a1,1,0,0,1,1-1V7A5,5,0,1,0,4,7v3a1,1,0,0,1,1,1v6a1,1,0,0,1-1,1H2a2,2,0,0,1-2-2V12a2,2,0,0,1,2-2V7A7,7,0,0,1,16,7v3a2,2,0,0,1,2,2Z" transform="translate(3 1)" fill="#6d6d6d"/>
</svg>
