<svg xmlns="http://www.w3.org/2000/svg" xmlns:xlink="http://www.w3.org/1999/xlink" width="96" height="48" viewBox="0 0 96 48">
  <defs>
    <clipPath id="clip-path">
      <rect id="Rectangle_1719" data-name="Rectangle 1719" width="48" height="48" rx="7" transform="translate(32 17)" fill="#fff" stroke="#707070" stroke-width="1"/>
    </clipPath>
    <clipPath id="clip-path-2">
      <rect id="Rectangle_1722" data-name="Rectangle 1722" width="48" height="48" transform="translate(39 17)" fill="#fff" stroke="#707070" stroke-width="1"/>
    </clipPath>
  </defs>
  <g id="pay1" transform="translate(-47 -17)">
    <rect id="Rectangle_1723" data-name="Rectangle 1723" width="96" height="48" transform="translate(47 17)" fill="#fff"/>
    <g id="Mask_Group_4" data-name="Mask Group 4" transform="translate(63)" clip-path="url(#clip-path)">
      <g id="mc_symbol" transform="translate(32 23.993)">
        <rect id="Rectangle_1720" data-name="Rectangle 1720" width="48" height="34.014" fill="none"/>
        <g id="Group_6408" data-name="Group 6408">
          <rect id="Rectangle_1721" data-name="Rectangle 1721" width="9.921" height="17.828" transform="translate(19.026 8.093)" fill="#ff5f00"/>
          <path id="Path_2550" data-name="Path 2550" d="M120.375,96.374a11.318,11.318,0,0,1,4.33-8.914,11.338,11.338,0,1,0,0,17.828,11.319,11.319,0,0,1-4.33-8.914Z" transform="translate(-100.719 -79.366)" fill="#eb001b"/>
          <path id="Path_2551" data-name="Path 2551" d="M143.049,96.374a11.338,11.338,0,0,1-18.344,8.914,11.34,11.34,0,0,0,0-17.828,11.338,11.338,0,0,1,18.344,8.914Z" transform="translate(-100.719 -79.366)" fill="#f79e1b"/>
          <path id="Path_2552" data-name="Path 2552" d="M141.968,103.4v-.365h.147v-.074h-.375v.074h.147v.365Zm.728,0v-.44h-.115l-.132.3-.132-.3H142.2v.44h.081v-.332l.124.286h.084l.124-.287v.333Z" transform="translate(-100.719 -79.366)" fill="#f79e1b"/>
        </g>
      </g>
    </g>
    <g id="Mask_Group_5" data-name="Mask Group 5" transform="translate(8)" clip-path="url(#clip-path-2)">
      <g id="visa" transform="translate(39 17)">
        <path id="Path_2553" data-name="Path 2553" d="M17.6,30.9l2.438-13.714h3.81L21.486,30.9Z" fill="#3c58bf"/>
        <path id="Path_2554" data-name="Path 2554" d="M17.6,30.9l3.124-13.714h3.124L21.486,30.9Z" fill="#293688"/>
        <path id="Path_2555" data-name="Path 2555" d="M35.276,17.333a9.664,9.664,0,0,0-3.5-.61c-3.81,0-6.552,1.9-6.552,4.648,0,2.057,1.9,3.124,3.429,3.81s1.981,1.143,1.981,1.752c0,.914-1.219,1.371-2.286,1.371a8.281,8.281,0,0,1-3.657-.762l-.533-.229-.533,3.124a12.354,12.354,0,0,0,4.343.762c4.038,0,6.7-1.9,6.7-4.8,0-1.6-.99-2.819-3.276-3.81-1.371-.686-2.21-1.067-2.21-1.752,0-.61.686-1.219,2.21-1.219a6.988,6.988,0,0,1,2.9.533l.381.152.61-2.971Z" fill="#3c58bf"/>
        <path id="Path_2556" data-name="Path 2556" d="M35.276,17.333a9.664,9.664,0,0,0-3.5-.61c-3.81,0-5.867,1.9-5.867,4.648a3.983,3.983,0,0,0,2.743,3.81c1.524.686,1.981,1.143,1.981,1.752,0,.914-1.219,1.371-2.286,1.371a8.281,8.281,0,0,1-3.657-.762l-.533-.229-.533,3.124a12.354,12.354,0,0,0,4.343.762c4.038,0,6.7-1.9,6.7-4.8,0-1.6-.99-2.819-3.276-3.81-1.371-.686-2.21-1.067-2.21-1.752,0-.61.686-1.219,2.21-1.219a6.988,6.988,0,0,1,2.9.533l.381.152.61-2.971Z" fill="#293688"/>
        <path id="Path_2557" data-name="Path 2557" d="M41.829,17.181c-.914,0-1.6.076-1.981.99L34.133,30.9h4.114l.762-2.286h4.876l.457,2.286H48L44.8,17.181Zm-1.752,9.143c.229-.686,1.524-4.038,1.524-4.038s.3-.838.533-1.371l.229,1.3s.762,3.429.914,4.19h-3.2Z" fill="#3c58bf"/>
        <path id="Path_2558" data-name="Path 2558" d="M42.743,17.181c-.914,0-1.6.076-1.981.99L34.133,30.9h4.114l.762-2.286h4.876l.457,2.286H48L44.8,17.181Zm-2.667,9.143c.3-.762,1.524-4.038,1.524-4.038s.3-.838.533-1.371l.229,1.3s.762,3.429.914,4.19h-3.2Z" fill="#293688"/>
        <path id="Path_2559" data-name="Path 2559" d="M10.59,26.781,10.21,24.8a11.045,11.045,0,0,0-5.333-6.019L8.3,30.971h4.114L18.59,17.257H14.476Z" fill="#3c58bf"/>
        <path id="Path_2560" data-name="Path 2560" d="M10.59,26.781,10.21,24.8a11.045,11.045,0,0,0-5.333-6.019L8.3,30.971h4.114L18.59,17.257H15.238Z" fill="#293688"/>
        <path id="Path_2561" data-name="Path 2561" d="M0,17.181l.686.152c4.876,1.143,8.229,4.038,9.524,7.467L8.838,18.324c-.229-.914-.914-1.143-1.752-1.143Z" fill="#ffbc00"/>
        <path id="Path_2562" data-name="Path 2562" d="M0,17.181H0c4.876,1.143,8.914,4.114,10.21,7.543l-1.3-5.41a1.86,1.86,0,0,0-1.829-1.448Z" fill="#f7981d"/>
        <path id="Path_2563" data-name="Path 2563" d="M0,17.181H0c4.876,1.143,8.914,4.114,10.21,7.543L9.3,21.752a2.687,2.687,0,0,0-1.6-2.21Z" fill="#ed7c00"/>
        <g id="Group_6409" data-name="Group 6409">
          <path id="Path_2564" data-name="Path 2564" d="M14.4,26.324l-2.59-2.59-1.219,2.9-.3-1.9A11.045,11.045,0,0,0,4.952,18.7L8.381,30.9H12.5Z" fill="#051244"/>
          <path id="Path_2565" data-name="Path 2565" d="M21.486,30.9,18.21,27.543,17.6,30.9Z" fill="#051244"/>
          <path id="Path_2566" data-name="Path 2566" d="M30.248,26.171h0c.3.3.457.533.381.838,0,.914-1.219,1.371-2.286,1.371a8.281,8.281,0,0,1-3.657-.762l-.533-.229-.533,3.124a12.354,12.354,0,0,0,4.343.762,7.544,7.544,0,0,0,5.562-1.9Z" fill="#051244"/>
          <path id="Path_2567" data-name="Path 2567" d="M34.667,30.9h3.581l.762-2.286h4.876l.457,2.286H48l-1.3-5.562-4.571-4.419.229,1.219s.762,3.429.914,4.19h-3.2c.3-.762,1.524-4.038,1.524-4.038s.3-.838.533-1.371" fill="#051244"/>
        </g>
      </g>
    </g>
  </g>
</svg>
