<svg xmlns="http://www.w3.org/2000/svg" width="96" height="28" viewBox="0 0 96 28">
  <g id="pay2" transform="translate(-47 -27)">
    <g id="_366497" data-name="366497" transform="translate(47 27)">
      <path id="Path_2599" data-name="Path 2599" d="M322.862,231.4V216.606h2.528v1.186a4.094,4.094,0,0,1,3.325-1.472c2.913,0,5,2.3,5,5.6s-2.1,5.644-5,5.644a4.1,4.1,0,0,1-3.325-1.5v5.33h-2.528Zm2.529-10.837v2.726a3.128,3.128,0,0,0,2.886,1.909c1.677,0,2.8-1.241,2.8-3.285,0-2.017-1.127-3.245-2.8-3.245a3.1,3.1,0,0,0-2.886,1.895" transform="translate(-260.598 -210.717)" fill="#02aa7c"/>
      <path id="Path_2600" data-name="Path 2600" d="M381.415,225.229a3.16,3.16,0,0,1,3-3.285l4.3-.545v-.532a.861.861,0,0,0-.934-.982h-5.4v-2.277h5.5c2.185,0,3.38,1.063,3.38,2.945v7.7H388.7v-1.295a4.153,4.153,0,0,1-3.545,1.622c-2.226,0-3.738-1.35-3.738-3.354m4.356,1.308a3.149,3.149,0,0,0,2.927-1.786v-1.336l-3.284.45c-.907.123-1.415.6-1.415,1.377,0,.832.646,1.295,1.773,1.295" transform="translate(-306.66 -211.733)" fill="#02aa7c"/>
      <path id="Path_2601" data-name="Path 2601" d="M434.394,230.136h1.841a1.166,1.166,0,0,0,1.251-.941l.33-.941-3.9-10.647h2.639l2.432,7.416h.055l2.322-7.416h2.6l-4.274,12.228c-.577,1.677-1.347,2.576-3.229,2.576h-2.061v-2.276Z" transform="translate(-347.958 -211.733)" fill="#02aa7c"/>
      <path id="Path_2602" data-name="Path 2602" d="M40.276,217.848a9.9,9.9,0,0,0,6.953-2.44,6.3,6.3,0,0,0,1.9-4.58,5.907,5.907,0,0,0-1.759-4.267,9.219,9.219,0,0,0-4.837-2.358l-3.38-.654c-1.4-.259-2.2-.954-2.2-1.922,0-1.268,1.237-2.14,3.216-2.14a4.192,4.192,0,0,1,3,1.091A3.289,3.289,0,0,1,44,202.362l4.878-1.091a5.957,5.957,0,0,0-1.8-3.626,9.9,9.9,0,0,0-6.967-2.563,9.581,9.581,0,0,0-6.472,2.263,6.345,6.345,0,0,0-2.061,4.717,5.4,5.4,0,0,0,1.58,4.008,9.657,9.657,0,0,0,4.617,2.317l3.339.791c1.677.4,2.419,1.009,2.419,2.1,0,1.35-1.237,2.14-3.257,2.14a4.543,4.543,0,0,1-3.38-1.268,3.034,3.034,0,0,1-.88-2L31,211.236a6.2,6.2,0,0,0,1.9,3.844,10.223,10.223,0,0,0,7.379,2.767m37.13,0a10.477,10.477,0,0,0,7.475-2.835,9.679,9.679,0,0,0,2.639-4.4l-5.139-1.7a4.836,4.836,0,0,1-1.36,2.263,5.02,5.02,0,0,1-3.614,1.35,5.585,5.585,0,0,1-3.916-1.568,6.3,6.3,0,0,1-1.635-4.5,6.227,6.227,0,0,1,1.635-4.5,5.372,5.372,0,0,1,3.875-1.527,4.683,4.683,0,0,1,3.477,1.309,5.543,5.543,0,0,1,1.319,2.317l5.236-1.745a9.907,9.907,0,0,0-2.46-4.321,10.752,10.752,0,0,0-7.7-2.917,11.157,11.157,0,0,0-7.956,3.19,11.86,11.86,0,0,0,.083,16.413,11.281,11.281,0,0,0,8.039,3.176m-17.768,0a7.39,7.39,0,0,0,4.617-1.309v-4.717a5.108,5.108,0,0,1-2.954.872,3.083,3.083,0,0,1-2.2-.7,3.03,3.03,0,0,1-.66-2.181V189.848H52.63v5.889H64.241v5.589H52.63v9.91a6.635,6.635,0,0,0,1.718,4.758,7.4,7.4,0,0,0,5.29,1.854" transform="translate(-31 -189.848)" fill="#502c84"/>
    </g>
  </g>
</svg>
