<svg xmlns="http://www.w3.org/2000/svg" xmlns:xlink="http://www.w3.org/1999/xlink" width="96" height="48" viewBox="0 0 96 48">
  <defs>
    <clipPath id="clip-path">
      <rect id="Rectangle_1723" data-name="Rectangle 1723" width="96" height="48" transform="translate(47 17)" fill="#fff"/>
    </clipPath>
  </defs>
  <g id="pay3" transform="translate(-47 -17)">
    <g id="Mask_Group_6" data-name="Mask Group 6" clip-path="url(#clip-path)">
      <g id="paypal_1_" data-name="paypal (1)" transform="translate(47 -7)">
        <path id="Path_2568" data-name="Path 2568" d="M74.21,42.133H69.029a1.012,1.012,0,0,0-.762.61l-2.133,13.41a.4.4,0,0,0,.457.457h2.743a.4.4,0,0,0,.457-.457l.61-3.81a.7.7,0,0,1,.762-.61h1.676q5.257,0,5.943-5.029a3.994,3.994,0,0,0-.61-3.352,6.146,6.146,0,0,0-3.962-1.219m.61,5.029c-.3,1.829-1.676,1.829-3.048,1.829h-.914l.61-3.5c0-.152.152-.3.457-.3h.3c.914,0,1.829,0,2.286.61.3.152.3.61.3,1.371" fill="#139ad6"/>
        <g id="Group_6411" data-name="Group 6411">
          <path id="Path_2569" data-name="Path 2569" d="M36.876,42.133H31.7a1.012,1.012,0,0,0-.762.61L28.8,56.152a.4.4,0,0,0,.457.457H31.7a1.012,1.012,0,0,0,.762-.61l.61-3.657a.7.7,0,0,1,.762-.61H35.5q5.257,0,5.943-5.029a3.994,3.994,0,0,0-.61-3.352,5.857,5.857,0,0,0-3.962-1.219m.61,5.029c-.3,1.829-1.676,1.829-3.048,1.829h-.762l.61-3.5c0-.152.152-.3.457-.3h.3c.914,0,1.829,0,2.286.61a1.632,1.632,0,0,1,.152,1.371" fill="#263b80"/>
          <path id="Path_2570" data-name="Path 2570" d="M52.571,47.01H50.133c-.152,0-.457.152-.457.3l-.152.762-.152-.3a3.584,3.584,0,0,0-2.9-1.067,5.855,5.855,0,0,0-5.638,5.029,4.542,4.542,0,0,0,.914,3.81,3.84,3.84,0,0,0,3.2,1.219,4.871,4.871,0,0,0,3.5-1.371l-.152.762a.4.4,0,0,0,.457.457h2.286A1.012,1.012,0,0,0,51.81,56l1.371-8.533c-.152-.152-.457-.457-.61-.457m-3.5,4.876a2.947,2.947,0,0,1-2.9,2.438,2.437,2.437,0,0,1-1.676-.61,3.25,3.25,0,0,1-.457-1.829,2.718,2.718,0,0,1,4.419-1.829,2.66,2.66,0,0,1,.61,1.829" fill="#263b80"/>
        </g>
        <path id="Path_2571" data-name="Path 2571" d="M89.752,47.01H87.314c-.152,0-.457.152-.457.3l-.152.762-.152-.3a3.584,3.584,0,0,0-2.9-1.067,5.855,5.855,0,0,0-5.638,5.029,4.542,4.542,0,0,0,.914,3.81,3.84,3.84,0,0,0,3.2,1.219,4.871,4.871,0,0,0,3.5-1.371l-.152.762a.4.4,0,0,0,.457.457h2.286A1.012,1.012,0,0,0,88.99,56l1.371-8.533c-.152-.152-.3-.457-.61-.457m-3.5,4.876a2.947,2.947,0,0,1-2.9,2.438,2.437,2.437,0,0,1-1.676-.61,3.25,3.25,0,0,1-.457-1.829,2.718,2.718,0,0,1,4.419-1.829,1.749,1.749,0,0,1,.61,1.829" fill="#139ad6"/>
        <path id="Path_2572" data-name="Path 2572" d="M65.829,47.01h-2.59a.792.792,0,0,0-.61.3L59.276,52.5l-1.524-4.876a.7.7,0,0,0-.762-.457H54.552c-.3,0-.457.3-.457.61l2.743,8.076L54.248,59.5c-.152.3,0,.762.3.762H56.99a.792.792,0,0,0,.61-.3l8.381-12.038c.457-.457.152-.914-.152-.914" fill="#263b80"/>
        <path id="Path_2573" data-name="Path 2573" d="M92.648,42.59,90.514,56.3a.4.4,0,0,0,.457.457H93.1a1.012,1.012,0,0,0,.762-.61L96,42.743a.4.4,0,0,0-.457-.457H93.1c-.152-.152-.3,0-.457.3" fill="#139ad6"/>
        <path id="Path_2574" data-name="Path 2574" d="M17.524,37.562c-1.067-1.219-3.048-1.829-5.79-1.829H4.114a1.307,1.307,0,0,0-1.067.914L0,56.61a.7.7,0,0,0,.61.762H5.333L6.552,49.9v.3A1.307,1.307,0,0,1,7.619,49.3H9.9c4.419,0,7.771-1.829,8.838-6.857v-.457h0a5.322,5.322,0,0,0-1.219-4.419" fill="#263b80"/>
        <path id="Path_2575" data-name="Path 2575" d="M18.59,41.981h0v.457C17.524,47.619,14.171,49.3,9.752,49.3H7.467A1.307,1.307,0,0,0,6.4,50.21L4.876,59.5a.558.558,0,0,0,.61.61H9.448a.853.853,0,0,0,.914-.762V59.2l.762-4.724v-.3a.853.853,0,0,1,.914-.762h.61c3.81,0,6.857-1.524,7.619-6.1.3-1.829.152-3.5-.762-4.571a1.561,1.561,0,0,0-.914-.762" fill="#139ad6"/>
        <path id="Path_2576" data-name="Path 2576" d="M17.524,41.524c-.152,0-.3-.152-.457-.152a.56.56,0,0,1-.457-.152,8.05,8.05,0,0,0-1.981-.152H8.686a.56.56,0,0,0-.457.152.838.838,0,0,0-.457.762L6.552,49.9v.3A1.307,1.307,0,0,1,7.619,49.3H9.9c4.419,0,7.771-1.829,8.838-6.857a.56.56,0,0,1,.152-.457c-.3-.152-.457-.3-.762-.3-.457-.152-.457-.152-.61-.152" fill="#232c65"/>
      </g>
    </g>
  </g>
</svg>
