<svg xmlns="http://www.w3.org/2000/svg" width="178.263" height="15.092" viewBox="0 0 178.263 15.092">
  <g id="payment" transform="translate(-193 -3000.454)">
    <g id="_366497" data-name="366497" transform="translate(262 3000.454)">
      <path id="Path_2599" data-name="Path 2599" d="M322.862,224.411v-7.937h1.35v.636a2.182,2.182,0,0,1,1.776-.79,3.04,3.04,0,0,1,0,6.035,2.182,2.182,0,0,1-1.776-.8v2.86h-1.35Zm1.35-5.816v1.463a1.67,1.67,0,0,0,1.541,1.024c.9,0,1.5-.666,1.5-1.763s-.6-1.741-1.5-1.741a1.653,1.653,0,0,0-1.541,1.017" transform="translate(-289.614 -213.313)" fill="#02aa7c"/>
      <path id="Path_2600" data-name="Path 2600" d="M381.415,221.7a1.693,1.693,0,0,1,1.6-1.763l2.3-.293v-.285a.461.461,0,0,0-.5-.527h-2.884v-1.222h2.935c1.167,0,1.805.571,1.805,1.58v4.133H385.3v-.695a2.213,2.213,0,0,1-1.893.871,1.807,1.807,0,0,1-2-1.8m2.326.7a1.681,1.681,0,0,0,1.563-.958v-.717l-1.754.241c-.484.066-.756.322-.756.739,0,.446.345.695.947.695" transform="translate(-341.496 -214.456)" fill="#02aa7c"/>
      <path id="Path_2601" data-name="Path 2601" d="M434.17,224.331h.983a.623.623,0,0,0,.668-.5l.176-.5-2.084-5.713h1.409l1.3,3.98h.029l1.24-3.98h1.387l-2.282,6.562c-.308.9-.719,1.383-1.724,1.383h-1.1v-1.222Z" transform="translate(-388.014 -214.455)" fill="#02aa7c"/>
      <path id="Path_2602" data-name="Path 2602" d="M35.953,204.873a5.268,5.268,0,0,0,3.713-1.309,3.388,3.388,0,0,0,1.013-2.458,3.178,3.178,0,0,0-.939-2.29,4.913,4.913,0,0,0-2.583-1.266l-1.805-.351c-.748-.139-1.174-.512-1.174-1.031,0-.68.66-1.148,1.717-1.148a2.232,2.232,0,0,1,1.6.585,1.769,1.769,0,0,1,.448.958l2.6-.585a3.2,3.2,0,0,0-.961-1.946,5.271,5.271,0,0,0-3.72-1.375,5.1,5.1,0,0,0-3.456,1.214,3.412,3.412,0,0,0-1.1,2.531,2.906,2.906,0,0,0,.844,2.151,5.147,5.147,0,0,0,2.466,1.244l1.783.424c.9.212,1.291.541,1.291,1.127,0,.724-.66,1.149-1.739,1.149a2.419,2.419,0,0,1-1.805-.68,1.632,1.632,0,0,1-.47-1.075L31,201.326a3.335,3.335,0,0,0,1.013,2.063,5.444,5.444,0,0,0,3.941,1.485m19.827,0a5.58,5.58,0,0,0,3.992-1.522,5.2,5.2,0,0,0,1.409-2.363l-2.744-.914a2.6,2.6,0,0,1-.726,1.214,2.673,2.673,0,0,1-1.93.724,2.975,2.975,0,0,1-2.091-.841,3.388,3.388,0,0,1-.873-2.414,3.351,3.351,0,0,1,.873-2.414,2.861,2.861,0,0,1,2.069-.819,2.494,2.494,0,0,1,1.857.7,2.978,2.978,0,0,1,.7,1.244l2.8-.936a5.323,5.323,0,0,0-1.313-2.319,5.726,5.726,0,0,0-4.109-1.565,5.943,5.943,0,0,0-4.249,1.712,6.387,6.387,0,0,0,.044,8.808,6.008,6.008,0,0,0,4.293,1.7m-9.488,0a3.933,3.933,0,0,0,2.466-.7V201.64a2.718,2.718,0,0,1-1.578.468,1.315,1.315,0,0,1-1.526-1.543V189.848h-3.1v3.16h6.2v3h-6.2v5.318a3.571,3.571,0,0,0,.917,2.553,3.938,3.938,0,0,0,2.825.995" transform="translate(-31 -189.848)" fill="#502c84"/>
    </g>
    <g id="paypal_1_" data-name="paypal (1)" transform="translate(320 3001.454)">
      <path id="Path_2590" data-name="Path 2590" d="M70.446,42.133H67.679a.542.542,0,0,0-.407.329l-1.139,7.246a.217.217,0,0,0,.244.247h1.465a.217.217,0,0,0,.244-.247l.325-2.059a.374.374,0,0,1,.407-.329h.9A2.846,2.846,0,0,0,72.887,44.6a2.179,2.179,0,0,0-.325-1.812,3.256,3.256,0,0,0-2.116-.659m.325,2.717c-.163.988-.9.988-1.627.988h-.488l.325-1.894c0-.082.081-.165.244-.165h.163c.488,0,.976,0,1.221.329.163.082.163.329.163.741" transform="translate(-30.819 -38.675)" fill="#139ad6"/>
      <g id="Group_6417" data-name="Group 6417" transform="translate(15.379 3.458)">
        <path id="Path_2591" data-name="Path 2591" d="M33.113,42.133H30.346a.542.542,0,0,0-.407.329L28.8,49.709a.217.217,0,0,0,.244.247h1.3a.542.542,0,0,0,.407-.329l.325-1.976a.374.374,0,0,1,.407-.329h.9A2.846,2.846,0,0,0,35.554,44.6a2.179,2.179,0,0,0-.325-1.812,3.1,3.1,0,0,0-2.116-.659m.325,2.717c-.163.988-.9.988-1.627.988H31.4l.325-1.894c0-.082.081-.165.244-.165h.163c.488,0,.976,0,1.221.329a.891.891,0,0,1,.081.741" transform="translate(-28.8 -42.133)" fill="#263b80"/>
        <path id="Path_2592" data-name="Path 2592" d="M47.059,46.869h-1.3c-.081,0-.244.082-.244.165l-.081.412-.081-.165A1.9,1.9,0,0,0,43.8,46.7a3.14,3.14,0,0,0-3.011,2.717,2.476,2.476,0,0,0,.488,2.059,2.038,2.038,0,0,0,1.709.659,2.588,2.588,0,0,0,1.872-.741l-.081.412a.217.217,0,0,0,.244.247h1.221a.542.542,0,0,0,.407-.329l.732-4.611c-.081-.082-.244-.247-.325-.247M45.188,49.5a1.579,1.579,0,0,1-1.546,1.318,1.293,1.293,0,0,1-.9-.329A1.772,1.772,0,0,1,42.5,49.5a1.5,1.5,0,0,1,1.465-1.318,1.47,1.47,0,0,1,.9.329,1.449,1.449,0,0,1,.325.988" transform="translate(-34.365 -44.234)" fill="#263b80"/>
      </g>
      <path id="Path_2593" data-name="Path 2593" d="M84.24,46.869h-1.3c-.081,0-.244.082-.244.165l-.081.412-.081-.165a1.9,1.9,0,0,0-1.546-.576,3.14,3.14,0,0,0-3.011,2.717,2.476,2.476,0,0,0,.488,2.059,2.038,2.038,0,0,0,1.709.659,2.588,2.588,0,0,0,1.872-.741l-.081.412a.217.217,0,0,0,.244.247h1.221a.542.542,0,0,0,.407-.329l.732-4.611c-.081-.082-.163-.247-.325-.247M82.369,49.5a1.579,1.579,0,0,1-1.546,1.318,1.293,1.293,0,0,1-.9-.329,1.772,1.772,0,0,1-.244-.988,1.5,1.5,0,0,1,1.465-1.318,1.47,1.47,0,0,1,.9.329.952.952,0,0,1,.325.988" transform="translate(-36.313 -40.776)" fill="#139ad6"/>
      <path id="Path_2594" data-name="Path 2594" d="M60.361,47.01H58.977a.421.421,0,0,0-.325.165l-1.79,2.8-.814-2.635a.376.376,0,0,0-.407-.247h-1.3c-.163,0-.244.165-.244.329l1.465,4.364-1.383,1.976c-.081.165,0,.412.163.412h1.3a.421.421,0,0,0,.325-.165L60.442,47.5c.244-.247.081-.494-.081-.494" transform="translate(-25.209 -40.916)" fill="#263b80"/>
      <path id="Path_2595" data-name="Path 2595" d="M91.653,42.423l-1.139,7.411a.217.217,0,0,0,.244.247H91.9a.542.542,0,0,0,.407-.329l1.139-7.246a.217.217,0,0,0-.244-.247H91.9c-.081-.082-.163,0-.244.165" transform="translate(-42.181 -38.717)" fill="#139ad6"/>
      <path id="Path_2596" data-name="Path 2596" d="M9.358,36.721a3.991,3.991,0,0,0-3.092-.988H2.2a.7.7,0,0,0-.57.494L0,47.015a.375.375,0,0,0,.325.412H2.848L3.5,43.391v.165a.7.7,0,0,1,.57-.494H5.289c2.36,0,4.15-.988,4.719-3.705v-.247h0a2.9,2.9,0,0,0-.651-2.388" transform="translate(0 -35.733)" fill="#263b80"/>
      <path id="Path_2597" data-name="Path 2597" d="M12.2,41.981h0v.247c-.57,2.8-2.36,3.705-4.719,3.705H6.259a.7.7,0,0,0-.57.494l-.814,5.023a.3.3,0,0,0,.325.329H7.317a.457.457,0,0,0,.488-.412v-.082l.407-2.553v-.165a.457.457,0,0,1,.488-.412h.325c2.034,0,3.662-.823,4.069-3.294a3.057,3.057,0,0,0-.407-2.47.836.836,0,0,0-.488-.412" transform="translate(-2.272 -38.605)" fill="#139ad6"/>
      <path id="Path_2598" data-name="Path 2598" d="M12.411,41.314c-.081,0-.163-.082-.244-.082a.3.3,0,0,1-.244-.082,4.25,4.25,0,0,0-1.058-.082H7.692a.3.3,0,0,0-.244.082.454.454,0,0,0-.244.412l-.651,4.282v.165a.7.7,0,0,1,.57-.494H8.343c2.36,0,4.15-.988,4.719-3.705a.3.3,0,0,1,.081-.247c-.163-.082-.244-.165-.407-.165-.244-.082-.244-.082-.325-.082" transform="translate(-3.053 -38.185)" fill="#232c65"/>
    </g>
    <g id="visa" transform="translate(193 3003.455)">
      <path id="Path_2553" data-name="Path 2553" d="M17.6,26.308l1.623-9.127h2.535l-1.572,9.127Z" transform="translate(-5.887 -16.877)" fill="#3c58bf"/>
      <path id="Path_2554" data-name="Path 2554" d="M17.6,26.308l2.079-9.127h2.079l-1.572,9.127Z" transform="translate(-5.887 -16.877)" fill="#293688"/>
      <path id="Path_2555" data-name="Path 2555" d="M31.377,17.129a6.432,6.432,0,0,0-2.333-.406c-2.535,0-4.361,1.268-4.361,3.093,0,1.369,1.268,2.079,2.282,2.535s1.318.761,1.318,1.166c0,.608-.811.913-1.521.913a5.511,5.511,0,0,1-2.434-.507l-.355-.152-.355,2.079a8.222,8.222,0,0,0,2.89.507c2.687,0,4.462-1.268,4.462-3.195,0-1.065-.659-1.876-2.18-2.535-.913-.456-1.47-.71-1.47-1.166,0-.406.456-.811,1.47-.811a4.651,4.651,0,0,1,1.927.355l.254.1.406-1.978Z" transform="translate(-7.9 -16.724)" fill="#3c58bf"/>
      <path id="Path_2556" data-name="Path 2556" d="M31.377,17.129a6.432,6.432,0,0,0-2.333-.406c-2.535,0-3.9,1.268-3.9,3.093a2.651,2.651,0,0,0,1.825,2.535c1.014.456,1.318.761,1.318,1.166,0,.608-.811.913-1.521.913a5.511,5.511,0,0,1-2.434-.507l-.355-.152-.355,2.079a8.222,8.222,0,0,0,2.89.507c2.687,0,4.462-1.268,4.462-3.195,0-1.065-.659-1.876-2.18-2.535-.913-.456-1.47-.71-1.47-1.166,0-.406.456-.811,1.47-.811a4.651,4.651,0,0,1,1.927.355l.254.1.406-1.978Z" transform="translate(-7.9 -16.724)" fill="#293688"/>
      <path id="Path_2557" data-name="Path 2557" d="M39.255,17.181c-.608,0-1.065.051-1.318.659l-3.8,8.468h2.738l.507-1.521h3.245l.3,1.521h2.434l-2.13-9.127Zm-1.166,6.085c.152-.456,1.014-2.687,1.014-2.687s.2-.558.355-.913l.152.862s.507,2.282.608,2.789h-2.13Z" transform="translate(-11.417 -16.877)" fill="#3c58bf"/>
      <path id="Path_2558" data-name="Path 2558" d="M39.863,17.181c-.608,0-1.065.051-1.318.659l-4.411,8.468h2.738l.507-1.521h3.245l.3,1.521h2.434l-2.13-9.127Zm-1.775,6.085c.2-.507,1.014-2.687,1.014-2.687s.2-.558.355-.913l.152.862s.507,2.282.608,2.789h-2.13Z" transform="translate(-11.417 -16.877)" fill="#293688"/>
      <path id="Path_2559" data-name="Path 2559" d="M8.679,23.6l-.254-1.318a7.351,7.351,0,0,0-3.549-4.006l2.282,8.113H9.9L14,17.257H11.265Z" transform="translate(-1.631 -16.902)" fill="#3c58bf"/>
      <path id="Path_2560" data-name="Path 2560" d="M8.679,23.6l-.254-1.318a7.351,7.351,0,0,0-3.549-4.006l2.282,8.113H9.9L14,17.257H11.772Z" transform="translate(-1.631 -16.902)" fill="#293688"/>
      <path id="Path_2561" data-name="Path 2561" d="M0,17.181l.456.1a8.552,8.552,0,0,1,6.338,4.969l-.913-4.31c-.152-.608-.608-.761-1.166-.761Z" transform="translate(0 -16.877)" fill="#ffbc00"/>
      <path id="Path_2562" data-name="Path 2562" d="M0,17.181H0c3.245.761,5.933,2.738,6.795,5.02l-.862-3.6a1.238,1.238,0,0,0-1.217-.963Z" transform="translate(0 -16.877)" fill="#f7981d"/>
      <path id="Path_2563" data-name="Path 2563" d="M0,17.181H0c3.245.761,5.933,2.738,6.795,5.02l-.608-1.978a1.788,1.788,0,0,0-1.065-1.47Z" transform="translate(0 -16.877)" fill="#ed7c00"/>
      <g id="Group_6409" data-name="Group 6409" transform="translate(3.296 1.318)">
        <path id="Path_2564" data-name="Path 2564" d="M11.24,23.775,9.516,22.051,8.7,23.978l-.2-1.268A7.351,7.351,0,0,0,4.952,18.7l2.282,8.113H9.972Z" transform="translate(-4.952 -18.705)" fill="#051244"/>
        <path id="Path_2565" data-name="Path 2565" d="M20.186,29.774l-2.18-2.231L17.6,29.774Z" transform="translate(-9.183 -21.661)" fill="#051244"/>
        <path id="Path_2566" data-name="Path 2566" d="M28.031,26.171h0c.2.2.3.355.254.558,0,.608-.811.913-1.521.913a5.511,5.511,0,0,1-2.434-.507l-.355-.152-.355,2.079a8.222,8.222,0,0,0,2.89.507,5.02,5.02,0,0,0,3.7-1.268Z" transform="translate(-11.196 -21.202)" fill="#051244"/>
        <path id="Path_2567" data-name="Path 2567" d="M34.667,27.557H37.05l.507-1.521H40.8l.3,1.521H43.54l-.862-3.7-3.042-2.941.152.811s.507,2.282.608,2.789h-2.13c.2-.507,1.014-2.687,1.014-2.687s.2-.558.355-.913" transform="translate(-14.891 -19.444)" fill="#051244"/>
      </g>
    </g>
    <g id="Group_6418" data-name="Group 6418" transform="translate(232 3000.454)">
      <rect id="Rectangle_1721" data-name="Rectangle 1721" width="6.603" height="11.865" transform="translate(8.908 1.613)" fill="#ff5f00"/>
      <path id="Path_2550" data-name="Path 2550" d="M115.688,92.581a7.533,7.533,0,0,1,2.882-5.932,7.546,7.546,0,1,0,0,11.865A7.533,7.533,0,0,1,115.688,92.581Z" transform="translate(-106.361 -85.035)" fill="#eb001b"/>
      <path id="Path_2551" data-name="Path 2551" d="M136.914,92.581a7.546,7.546,0,0,1-12.208,5.933,7.547,7.547,0,0,0,0-11.865,7.546,7.546,0,0,1,12.208,5.933Z" transform="translate(-112.497 -85.035)" fill="#f79e1b"/>
      <path id="Path_2552" data-name="Path 2552" d="M141.892,103.252v-.243h.1v-.049h-.249v.049h.1v.243Zm.484,0v-.293H142.3l-.088.2-.088-.2h-.076v.293h.054v-.221l.082.19h.056l.082-.191v.221Z" transform="translate(-118.194 -91.03)" fill="#f79e1b"/>
    </g>
  </g>
</svg>
