<svg id="play-circle" xmlns="http://www.w3.org/2000/svg" width="70" height="70" viewBox="0 0 70 70">
  <rect id="Bounding_box" data-name="Bounding box" width="70" height="70" fill="#fff" opacity="0"/>
  <path id="Icon_color" data-name="Icon color" d="M33,66A33,33,0,1,1,66,33,33.037,33.037,0,0,1,33,66ZM33,6.6A26.4,26.4,0,1,0,59.4,33,26.43,26.43,0,0,0,33,6.6ZM25.575,47.506a2.473,2.473,0,0,1-2.474-2.46V20.957a2.474,2.474,0,0,1,3.8-2.079L46.2,30.888a2.508,2.508,0,0,1,0,4.223L26.9,47.125A2.479,2.479,0,0,1,25.575,47.506Z" transform="translate(2 2)" fill="#fff"/>
</svg>
