<svg id="premium-icon" xmlns="http://www.w3.org/2000/svg" width="20" height="20" viewBox="0 0 20 20">
  <rect id="Bounding_box" data-name="Bounding box" width="20" height="20" fill="#fbbd0d" opacity="0"/>
  <path id="Icon_color" data-name="Icon color" d="M16,4.542v.233a.765.765,0,0,1-.184.5l-7.2,8.447A.809.809,0,0,1,8,14H8a.809.809,0,0,1-.616-.28L.184,5.273A.765.765,0,0,1,0,4.776V4.542a.766.766,0,0,1,.208-.529L3.528.506A1.621,1.621,0,0,1,4.7,0H11.3a1.621,1.621,0,0,1,1.176.506l3.32,3.508A.766.766,0,0,1,16,4.542Z" transform="translate(2 3)" fill="#fbbd0d"/>
</svg>
